<svg width="16" height="16" viewBox="0 0 16 16" fill="none" xmlns="http://www.w3.org/2000/svg">
<g clip-path="url(#clip0_1_1246)">
<path d="M5.21784 0.189451C5.52742 0.46464 5.55531 0.938694 5.28012 1.24828L2.78012 4.18578C2.64289 4.34016 2.44806 4.43112 2.24159 4.43718C2.03513 4.44325 1.83529 4.3639 1.68923 4.21784L0.21967 2.74817C-0.0732232 2.45527 -0.0732232 1.9804 0.21967 1.68751C0.512563 1.39462 0.987437 1.39462 1.28033 1.68751L2.18745 2.59474L4.15901 0.251735C4.4342 -0.057852 4.90825 -0.0857375 5.21784 0.189451Z" fill="#4D5061"/>
<path d="M0 11.2857C0 10.8518 0.351776 10.5 0.785714 10.5H4.02679C4.46072 10.5 4.8125 10.8518 4.8125 11.2857V14.5268C4.8125 14.9607 4.46072 15.3125 4.02679 15.3125H0.785714C0.351776 15.3125 0 14.9607 0 14.5268V11.2857Z" fill="#4D5061"/>
<path d="M5.28012 6.24828C5.55531 5.93869 5.52742 5.46464 5.21784 5.18945C4.90825 4.91426 4.4342 4.94215 4.15901 5.25173L2.18745 7.59474L1.28033 6.68751C0.987437 6.39462 0.512563 6.39462 0.21967 6.68751C-0.0732232 6.9804 -0.0732232 7.45527 0.21967 7.74817L1.68923 9.21784C1.83529 9.3639 2.03513 9.44325 2.24159 9.43718C2.44806 9.43112 2.64289 9.34016 2.78012 9.18578L5.28012 6.24828Z" fill="#4D5061"/>
<path d="M7.5 1.75C6.8356 1.75 6.29699 2.30964 6.29699 3C6.29699 3.69036 6.8356 4.25 7.5 4.25H14.797C15.4614 4.25 16 3.69036 16 3C16 2.30964 15.4614 1.75 14.797 1.75H7.5Z" fill="#4D5061"/>
<path d="M7.5 6.75C6.8356 6.75 6.29699 7.30964 6.29699 8C6.29699 8.69036 6.8356 9.25 7.5 9.25H14.797C15.4614 9.25 16 8.69036 16 8C16 7.30964 15.4614 6.75 14.797 6.75H7.5Z" fill="#4D5061"/>
<path d="M6.29699 13C6.29699 12.3096 6.8356 11.75 7.5 11.75H14.797C15.4614 11.75 16 12.3096 16 13C16 13.6904 15.4614 14.25 14.797 14.25H7.5C6.8356 14.25 6.29699 13.6904 6.29699 13Z" fill="#4D5061"/>
</g>
<defs>
<clipPath id="clip0_1_1246">
<rect width="16" height="16" fill="white"/>
</clipPath>
</defs>
</svg>
