<svg width="16" height="16" viewBox="0 0 16 16" fill="none" xmlns="http://www.w3.org/2000/svg">
<g clip-path="url(#clip0_1_1366)">
<path fill-rule="evenodd" clip-rule="evenodd" d="M0 8C0 3.58172 3.58172 0 8 0C12.4183 0 16 3.58172 16 8C16 12.4183 12.4183 16 8 16C3.58172 16 0 12.4183 0 8ZM6.75 4.25C6.75 3.69772 7.19772 3.25 7.75 3.25C8.30229 3.25 8.75 3.69772 8.75 4.25V8.33579L10.9571 10.5429C11.3476 10.9334 11.3476 11.5666 10.9571 11.9571C10.5666 12.3476 9.93342 12.3476 9.54289 11.9571L7.04289 9.45711C6.85536 9.26957 6.75 9.01522 6.75 8.75V4.25Z" fill="#4D5061"/>
</g>
<defs>
<clipPath id="clip0_1_1366">
<rect width="16" height="16" fill="white"/>
</clipPath>
</defs>
</svg>
